<svg width="56" height="56" viewBox="0 0 56 56" fill="none" xmlns="http://www.w3.org/2000/svg">
<path d="M51.3333 54.1333V49.3005C53.1257 48.5448 54.2474 46.7418 54.1333 44.8C54.1333 42.2268 52.4589 40.1333 50.4 40.1333C48.3411 40.1333 46.6667 42.2268 46.6667 44.8C46.5526 46.7418 47.6743 48.5448 49.4667 49.3005V54.1333H44.8V25.2C44.8001 24.8463 44.6003 24.5227 44.2839 24.3647L37.3333 20.8899V15.8667C37.3336 15.4498 37.0574 15.0834 36.6567 14.9688L24.2667 11.4287V0.933333C24.2667 0.4179 23.8488 0 23.3333 0H4.66667C4.15123 0 3.73333 0.4179 3.73333 0.933333V54.1333H0V56H56V54.1333H51.3333ZM22.4 54.1333H5.6V52.2667H14V50.4H5.6V46.6667H14V44.8H5.6V41.0667H14V39.2H5.6V35.4667H14V33.6H5.6V29.8667H14V28H5.6V24.2667H14V22.4H5.6V18.6667H14V16.8H5.6V13.0667H14V11.2H5.6V7.46667H14V5.6H5.6V1.86667H22.4V54.1333ZM35.4667 54.1333H24.2667V52.2667H30.8V50.4H24.2667V46.6667H30.8V44.8H24.2667V41.0667H30.8V39.2H24.2667V35.4667H30.8V33.6H24.2667V29.8667H30.8V28H24.2667V24.2667H30.8V22.4H24.2667V18.6667H30.8V16.8H24.2667V13.3709L35.4667 16.5704V54.1333ZM42.9333 54.1333H37.3333V52.2667H40.1333V50.4H37.3333V46.6667H40.1333V44.8H37.3333V41.0667H40.1333V39.2H37.3333V35.4667H40.1333V33.6H37.3333V29.8667H40.1333V28H37.3333V22.9768L42.9333 25.7768V54.1333ZM49.4667 47.1987C48.8398 46.5608 48.5024 45.6937 48.5333 44.8C48.5333 43.2824 49.3883 42 50.4 42C51.4117 42 52.2667 43.2824 52.2667 44.8C52.2969 45.6936 51.9596 46.5605 51.3333 47.1987V45.7333H49.4667V47.1987Z" fill="#80CBA3"/>
</svg>
