<svg width="16" height="17" viewBox="0 0 16 17" fill="none" xmlns="http://www.w3.org/2000/svg">
<path d="M8.47052 2.38238C8.47052 1.34277 9.31329 0.5 10.3529 0.5H14.1177C15.1573 0.5 16.0001 1.34277 16.0001 2.38238V6.14715C16.0001 7.18676 15.1573 8.02953 14.1177 8.02953H10.3529C9.31329 8.02953 8.47052 7.18676 8.47052 6.14715V2.38238Z" fill="#CACACA"/>
<path d="M0 2.38238C0 1.34277 0.842772 0.5 1.88238 0.5H5.64715C6.68676 0.5 7.52953 1.34277 7.52953 2.38238V6.14715C7.52953 7.18676 6.68676 8.02953 5.64715 8.02953H1.88238C0.842772 8.02953 0 7.18676 0 6.14715V2.38238Z" fill="#CACACA"/>
<path d="M0 10.8531C0 9.81348 0.842772 8.9707 1.88238 8.9707H5.64715C6.68676 8.9707 7.52953 9.81348 7.52953 10.8531V14.6179C7.52953 15.6575 6.68676 16.5002 5.64715 16.5002H1.88238C0.842772 16.5002 0 15.6575 0 14.6179V10.8531Z" fill="#CACACA"/>
<path d="M8.47052 10.8531C8.47052 9.81348 9.31329 8.9707 10.3529 8.9707H14.1177C15.1573 8.9707 16.0001 9.81348 16.0001 10.8531V14.6179C16.0001 15.6575 15.1573 16.5002 14.1177 16.5002H10.3529C9.31329 16.5002 8.47052 15.6575 8.47052 14.6179V10.8531Z" fill="#CACACA"/>
</svg>
