<svg width="16" height="17" viewBox="0 0 16 17" fill="none" xmlns="http://www.w3.org/2000/svg">
<path d="M0 5.83333C0 5.34243 0.397969 4.94448 0.888889 4.94448H15.1111C15.602 4.94448 16 5.34243 16 5.83333V6.72219C16 7.21309 15.602 7.61104 15.1111 7.61104H0.888889C0.39797 7.61104 0 7.21309 0 6.72219V5.83333Z" fill="white"/>
<path d="M0 1.38885C0 0.897953 0.397969 0.5 0.888889 0.5H15.1111C15.602 0.5 16 0.897953 16 1.38885V2.27771C16 2.76861 15.602 3.16656 15.1111 3.16656H0.888889C0.39797 3.16656 0 2.76861 0 2.27771V1.38885Z" fill="white"/>
<path d="M0 10.2778C0 9.78691 0.397969 9.38896 0.888889 9.38896H15.1111C15.602 9.38896 16 9.78691 16 10.2778V11.1667C16 11.6576 15.602 12.0555 15.1111 12.0555H0.888889C0.39797 12.0555 0 11.6576 0 11.1667V10.2778Z" fill="white"/>
<path d="M0 14.7223C0 14.2314 0.397969 13.8334 0.888889 13.8334H15.1111C15.602 13.8334 16 14.2314 16 14.7223V15.6111C16 16.102 15.602 16.5 15.1111 16.5H0.888889C0.39797 16.5 0 16.102 0 15.6111V14.7223Z" fill="white"/>
</svg>
