<svg width="40" height="38" viewBox="0 0 40 38" fill="none" xmlns="http://www.w3.org/2000/svg">
<path d="M5.66484 31.7195C5.70954 31.8386 5.7895 31.9412 5.89406 32.0137C5.99862 32.0861 6.1228 32.1249 6.25 32.1249C6.3772 32.1249 6.50138 32.0861 6.60594 32.0137C6.7105 31.9412 6.79047 31.8386 6.83516 31.7195L8.71016 26.7195C8.7366 26.6494 8.7501 26.575 8.75 26.5V8.6875C8.74936 8.10754 8.51869 7.55151 8.10859 7.14141C7.69849 6.73132 7.14246 6.50064 6.5625 6.5H5.9375C5.35754 6.50064 4.80151 6.73132 4.39141 7.14141C3.98132 7.55151 3.75064 8.10754 3.75 8.6875V26.5C3.7499 26.575 3.7634 26.6494 3.78984 26.7195L5.66484 31.7195ZM6.25 29.7203L5.51094 27.75H6.98906L6.25 29.7203ZM5 8.6875C5.00021 8.43892 5.09905 8.20059 5.27482 8.02482C5.45059 7.84905 5.68892 7.75021 5.9375 7.75H6.5625C6.81108 7.75021 7.04941 7.84905 7.22518 8.02482C7.40095 8.20059 7.49979 8.43892 7.5 8.6875V10.25H5V8.6875ZM5 11.5H5.625H6.875H7.5V25.5625H5V11.5Z" fill="#939393"/>
<path d="M35.625 1.5C34.7391 1.50122 33.8822 1.8155 33.2056 2.38733C32.529 2.95915 32.0762 3.75172 31.9273 4.625H16.25V0.875C16.25 0.70924 16.1842 0.550268 16.0669 0.433058C15.9497 0.315848 15.7908 0.25 15.625 0.25H10.625C10.4592 0.25 10.3003 0.315848 10.1831 0.433058C10.0658 0.550268 10 0.70924 10 0.875V4.625H1.25C1.08424 4.625 0.925268 4.69085 0.808058 4.80806C0.690848 4.92527 0.625 5.08424 0.625 5.25V33.375C0.625 33.5408 0.690848 33.6997 0.808058 33.8169C0.925268 33.9342 1.08424 34 1.25 34H10V37.125C10 37.2908 10.0658 37.4497 10.1831 37.5669C10.3003 37.6842 10.4592 37.75 10.625 37.75H15.625C15.7908 37.75 15.9497 37.6842 16.0669 37.5669C16.1842 37.4497 16.25 37.2908 16.25 37.125V34H35.625C36.6192 33.9989 37.5725 33.6035 38.2755 32.9005C38.9785 32.1975 39.3739 31.2442 39.375 30.25V5.25C39.3739 4.25576 38.9785 3.30255 38.2755 2.59951C37.5725 1.89648 36.6192 1.50105 35.625 1.5ZM10 32.75H1.875V5.875H10V32.75ZM15 2.75H13.125C12.9592 2.75 12.8003 2.81585 12.6831 2.93306C12.5658 3.05027 12.5 3.20924 12.5 3.375C12.5 3.54076 12.5658 3.69973 12.6831 3.81694C12.8003 3.93415 12.9592 4 13.125 4H15V5.875H13.125C12.9592 5.875 12.8003 5.94085 12.6831 6.05806C12.5658 6.17527 12.5 6.33424 12.5 6.5C12.5 6.66576 12.5658 6.82473 12.6831 6.94194C12.8003 7.05915 12.9592 7.125 13.125 7.125H15V9H13.125C12.9592 9 12.8003 9.06585 12.6831 9.18306C12.5658 9.30027 12.5 9.45924 12.5 9.625C12.5 9.79076 12.5658 9.94973 12.6831 10.0669C12.8003 10.1842 12.9592 10.25 13.125 10.25H15V12.125H13.125C12.9592 12.125 12.8003 12.1908 12.6831 12.3081C12.5658 12.4253 12.5 12.5842 12.5 12.75C12.5 12.9158 12.5658 13.0747 12.6831 13.1919C12.8003 13.3092 12.9592 13.375 13.125 13.375H15V15.25H13.125C12.9592 15.25 12.8003 15.3158 12.6831 15.4331C12.5658 15.5503 12.5 15.7092 12.5 15.875C12.5 16.0408 12.5658 16.1997 12.6831 16.3169C12.8003 16.4342 12.9592 16.5 13.125 16.5H15V18.375H13.125C12.9592 18.375 12.8003 18.4408 12.6831 18.5581C12.5658 18.6753 12.5 18.8342 12.5 19C12.5 19.1658 12.5658 19.3247 12.6831 19.4419C12.8003 19.5592 12.9592 19.625 13.125 19.625H15V21.5H13.125C12.9592 21.5 12.8003 21.5658 12.6831 21.6831C12.5658 21.8003 12.5 21.9592 12.5 22.125C12.5 22.2908 12.5658 22.4497 12.6831 22.5669C12.8003 22.6842 12.9592 22.75 13.125 22.75H15V24.625H13.125C12.9592 24.625 12.8003 24.6908 12.6831 24.8081C12.5658 24.9253 12.5 25.0842 12.5 25.25C12.5 25.4158 12.5658 25.5747 12.6831 25.6919C12.8003 25.8092 12.9592 25.875 13.125 25.875H15V27.75H13.125C12.9592 27.75 12.8003 27.8158 12.6831 27.9331C12.5658 28.0503 12.5 28.2092 12.5 28.375C12.5 28.5408 12.5658 28.6997 12.6831 28.8169C12.8003 28.9342 12.9592 29 13.125 29H15V30.875H13.125C12.9592 30.875 12.8003 30.9408 12.6831 31.0581C12.5658 31.1753 12.5 31.3342 12.5 31.5C12.5 31.6658 12.5658 31.8247 12.6831 31.9419C12.8003 32.0592 12.9592 32.125 13.125 32.125H15V34H13.125C12.9592 34 12.8003 34.0658 12.6831 34.1831C12.5658 34.3003 12.5 34.4592 12.5 34.625C12.5 34.7908 12.5658 34.9497 12.6831 35.0669C12.8003 35.1842 12.9592 35.25 13.125 35.25H15V36.5H11.25V1.5H15V2.75ZM35.625 32.75H16.25V5.875H31.875V30.25C31.875 30.4158 31.9408 30.5747 32.0581 30.6919C32.1753 30.8092 32.3342 30.875 32.5 30.875C32.6658 30.875 32.8247 30.8092 32.9419 30.6919C33.0592 30.5747 33.125 30.4158 33.125 30.25C33.125 29.7555 33.2716 29.2722 33.5463 28.8611C33.821 28.45 34.2115 28.1295 34.6683 27.9403C35.1251 27.7511 35.6278 27.7016 36.1127 27.798C36.5977 27.8945 37.0431 28.1326 37.3928 28.4822C37.7424 28.8319 37.9805 29.2773 38.077 29.7623C38.1734 30.2472 38.1239 30.7499 37.9347 31.2067C37.7455 31.6635 37.425 32.054 37.0139 32.3287C36.6028 32.6034 36.1195 32.75 35.625 32.75ZM38.125 27.4578C37.4383 26.8412 36.548 26.5001 35.6251 26.5C34.7023 26.4998 33.8119 26.8407 33.125 27.457V5.25C33.125 4.58696 33.3884 3.95107 33.8572 3.48223C34.3261 3.01339 34.962 2.75 35.625 2.75C36.288 2.75 36.9239 3.01339 37.3928 3.48223C37.8616 3.95107 38.125 4.58696 38.125 5.25V27.4578Z" fill="#939393"/>
</svg>
