<svg width="56" height="56" viewBox="0 0 56 56" fill="none" xmlns="http://www.w3.org/2000/svg">
<path d="M39.2008 9.33337H30.8008V11.2H39.2008V9.33337Z" fill="#80CBA3"/>
<path d="M39.2008 14.9332H30.8008V16.7999H39.2008V14.9332Z" fill="#80CBA3"/>
<path d="M39.2008 20.5334H30.8008V22.4001H39.2008V20.5334Z" fill="#80CBA3"/>
<path d="M39.2008 26.1333H30.8008V28H39.2008V26.1333Z" fill="#80CBA3"/>
<path d="M39.2008 31.7334H30.8008V33.6001H39.2008V31.7334Z" fill="#80CBA3"/>
<path d="M39.2008 37.3334H30.8008V39.2H39.2008V37.3334Z" fill="#80CBA3"/>
<path d="M39.2008 42.9332H30.8008V44.7999H39.2008V42.9332Z" fill="#80CBA3"/>
<path d="M39.2008 48.5334H30.8008V50.4001H39.2008V48.5334Z" fill="#80CBA3"/>
<path d="M25.2008 9.33337H16.8008V11.2H25.2008V9.33337Z" fill="#80CBA3"/>
<path d="M25.2008 14.9332H16.8008V16.7999H25.2008V14.9332Z" fill="#80CBA3"/>
<path d="M25.2008 20.5334H16.8008V22.4001H25.2008V20.5334Z" fill="#80CBA3"/>
<path d="M25.2008 26.1333H16.8008V28H25.2008V26.1333Z" fill="#80CBA3"/>
<path d="M25.2008 31.7334H16.8008V33.6001H25.2008V31.7334Z" fill="#80CBA3"/>
<path d="M25.2008 37.3334H16.8008V39.2H25.2008V37.3334Z" fill="#80CBA3"/>
<path d="M25.2008 42.9332H16.8008V44.7999H25.2008V42.9332Z" fill="#80CBA3"/>
<path d="M25.2008 48.5334H16.8008V50.4001H25.2008V48.5334Z" fill="#80CBA3"/>
<path d="M51.3333 54.1333V49.3015C53.1258 48.5454 54.2476 46.742 54.1333 44.8C54.1333 42.2268 52.4589 40.1333 50.4 40.1333C48.3411 40.1333 46.6667 42.2268 46.6667 44.8C46.5525 46.742 47.6742 48.5454 49.4667 49.3015V54.1333H42.9333V5.6H43.8667C44.3821 5.6 44.8 5.1821 44.8 4.66667V0.933333C44.8 0.4179 44.3821 0 43.8667 0H12.1333C11.6179 0 11.2 0.4179 11.2 0.933333V4.66667C11.2 5.1821 11.6179 5.6 12.1333 5.6H13.0667V54.1333H6.53333V49.3015C8.3258 48.5454 9.44755 46.742 9.33333 44.8C9.33333 42.2268 7.65893 40.1333 5.6 40.1333C3.54107 40.1333 1.86667 42.2268 1.86667 44.8C1.75245 46.742 2.8742 48.5454 4.66667 49.3015V54.1333H0V56H56V54.1333H51.3333ZM4.66667 47.1987C4.03982 46.5608 3.70242 45.6937 3.73333 44.8C3.73333 43.2824 4.58827 42 5.6 42C6.61173 42 7.46667 43.2824 7.46667 44.8C7.49688 45.6936 7.1596 46.5605 6.53333 47.1987V45.7333H4.66667V47.1987ZM13.0667 1.86667H42.9333V3.73333H13.0667V1.86667ZM27.0667 54.1333H14.9333V5.6H27.0667V54.1333ZM41.0667 54.1333H28.9333V5.6H41.0667V54.1333ZM49.4667 47.1987C48.8398 46.5608 48.5024 45.6937 48.5333 44.8C48.5333 43.2824 49.3883 42 50.4 42C51.4117 42 52.2667 43.2824 52.2667 44.8C52.2969 45.6936 51.9596 46.5605 51.3333 47.1987V45.7333H49.4667V47.1987Z" fill="#80CBA3"/>
</svg>
