<svg width="40" height="40" viewBox="0 0 40 40" fill="none" xmlns="http://www.w3.org/2000/svg">
<g clip-path="url(#clip0)">
<path d="M5.11905 17.0177C5.72111 13.5475 7.58936 10.3659 10.4388 8.04366L10.3441 7.92739L10.4388 8.04366C13.2245 5.77336 16.7221 4.47732 20.0299 4.47732C22.1864 4.47732 24.445 5.03211 26.5607 6.08099L26.561 6.08113C28.7334 7.15241 30.6347 8.70197 32.1221 10.6136C32.2934 10.8475 32.5782 10.9701 32.866 10.9343C33.1547 10.8983 33.4007 10.7084 33.5093 10.439L33.5093 10.439C33.6177 10.1696 33.5716 9.86277 33.3889 9.63712C31.7527 7.53371 29.6613 5.82835 27.2716 4.649C24.9396 3.49323 22.4363 2.88113 20.0299 2.88113C16.3534 2.88113 12.4906 4.30738 9.42791 6.80342C6.20502 9.42988 4.11304 13.0485 3.49699 17.0177L0.649933 17.0176L0.647901 17.0177C0.36017 17.0216 0.0964748 17.1783 -0.0452256 17.4286L-0.0452635 17.4287C-0.186723 17.6789 -0.184735 17.9858 -0.0402343 18.2342L-0.040236 18.2342L-0.0398554 18.2349L3.41157 24.1025L5.11905 17.0177ZM5.11905 17.0177H7.55332H7.55515V17.0177C7.84298 17.0212 8.10717 17.1783 8.24826 17.4288M5.11905 17.0177L3.41168 24.1027C3.55515 24.3472 3.81728 24.4971 4.10063 24.4975C4.38414 24.4979 4.64674 24.3483 4.79059 24.104L4.79062 24.1039L8.24247 18.2349L8.24267 18.2345C8.38802 17.9859 8.38997 17.6793 8.24826 17.4288M8.24826 17.4288C8.24823 17.4287 8.24819 17.4287 8.24816 17.4286L8.11762 17.5025L8.24833 17.4289C8.24831 17.4289 8.24829 17.4288 8.24826 17.4288ZM32.4469 23.005H34.8811C34.2791 26.4752 32.4108 29.6568 29.5617 31.9787C26.7757 34.249 23.2784 35.545 19.9702 35.545C17.8138 35.545 15.5551 34.9903 13.4394 33.9417L13.4392 33.9416C11.267 32.87 9.36549 31.3204 7.87808 29.4088C7.70681 29.1753 7.4221 29.0523 7.13422 29.0881L7.1342 29.0881C6.84582 29.1241 6.59942 29.3139 6.49087 29.5837L6.4908 29.5839C6.38286 29.8532 6.42887 30.1599 6.61127 30.3852C8.24745 32.489 10.3389 34.1943 12.7289 35.3734C15.0606 36.5291 17.5642 37.1412 19.9702 37.1412C23.6467 37.1412 27.5096 35.7153 30.5723 33.2189C33.7952 30.5928 35.8871 26.9742 36.5035 23.005L39.3502 23.005L39.3527 23.005C39.6399 23.0003 39.9037 22.8442 40.0452 22.5936C40.1865 22.3432 40.1846 22.0366 40.0401 21.7881L40.0397 21.7875L36.5882 15.9182C36.4444 15.6736 36.182 15.5236 35.8987 15.5236C35.6151 15.5236 35.353 15.6736 35.2092 15.9181C35.2092 15.9181 35.2092 15.9181 35.2092 15.9182L31.7577 21.7836L31.7573 21.7844C31.6121 22.0343 31.6107 22.342 31.7521 22.5934L31.7522 22.5935C31.8932 22.844 32.157 23.0011 32.4448 23.005H32.4469ZM19.7316 15.1571L18.6876 15.5195V14.1488H21.3126V15.5193L20.2732 15.1571L20.2721 15.1567C20.0971 15.0972 19.9073 15.0972 19.7324 15.1568L19.7316 15.1571ZM22.9126 16.6473V14.1488H25.8626V25.8737H14.1376V14.1488H17.0876L17.0876 16.6473L17.0876 16.6502C17.0927 16.9101 17.2215 17.1519 17.4345 17.3006C17.6473 17.4493 17.9187 17.4875 18.1644 17.4026L18.1651 17.4024L19.9979 16.7599L21.8297 17.4024L21.8299 17.4025C21.915 17.4321 22.0047 17.4473 22.0951 17.4473C22.2629 17.4473 22.4265 17.3965 22.5649 17.3012L22.5653 17.3009C22.7794 17.1524 22.9083 16.9099 22.9126 16.6498H22.9126V16.6473ZM37.9514 21.405H33.846L35.8987 17.9165L37.9514 21.405ZM4.10177 22.1059L2.04881 18.6177H6.15446L4.10177 22.1059ZM27.4626 13.3488C27.4626 12.907 27.1044 12.5488 26.6626 12.5488H13.3376C12.8958 12.5488 12.5376 12.907 12.5376 13.3488V26.6737C12.5376 27.1155 12.8958 27.4737 13.3376 27.4737H26.6626C27.1044 27.4737 27.4626 27.1155 27.4626 26.6737V13.3488ZM16.8018 20.649H20.9925C21.4343 20.649 21.7925 20.2908 21.7925 19.849C21.7925 19.4072 21.4343 19.049 20.9925 19.049H16.8018C16.36 19.049 16.0018 19.4072 16.0018 19.849C16.0018 20.2908 16.36 20.649 16.8018 20.649ZM16.8018 21.3238C16.36 21.3238 16.0018 21.682 16.0018 22.1238C16.0018 22.5656 16.36 22.9238 16.8018 22.9238H23.1986C23.6404 22.9238 23.9986 22.5656 23.9986 22.1238C23.9986 21.682 23.6404 21.3238 23.1986 21.3238H16.8018Z" fill="#939393" stroke="#939393" stroke-width="0.3"/>
</g>
<defs>
<clipPath id="clip0">
<rect width="40" height="40" fill="white"/>
</clipPath>
</defs>
</svg>
