<svg width="24" height="24" viewBox="0 0 24 24" fill="none" xmlns="http://www.w3.org/2000/svg">
<g clip-path="url(#clip0)">
<path d="M5.18188 1.98545H18.8185V0.57373H5.18188V1.98545Z" fill="white"/>
<path d="M0.513428 5.9567H6.00073V4.8026H0.513428V5.9567Z" fill="white"/>
<path d="M17.7949 5.9567H23.2822V4.8026H17.7949V5.9567Z" fill="white"/>
<path d="M6.00073 23.7476H18.0003V2.27542H6.00073V23.7476Z" fill="white"/>
<path d="M1.29521 23.7476H5.67159V6.19374H1.29521V23.7476Z" fill="white"/>
<path d="M18.1245 23.7476H22.9531V6.19374H18.1245V23.7476Z" fill="white"/>
<path fill-rule="evenodd" clip-rule="evenodd" d="M23.1942 23.2031V6.45H23.5192C23.6987 6.45 23.8442 6.30448 23.8442 6.125V4.825C23.8442 4.64552 23.6987 4.5 23.5192 4.5H18V6.45V23.2031V24H24.0877V23.2031H23.1942ZM23.1942 5.15H18.65V5.8H23.1942V5.15ZM18.65 6.45V23.2031H22.5442V6.45H18.65Z" fill="#80CBA3"/>
<path fill-rule="evenodd" clip-rule="evenodd" d="M0.89369 23.2031V6.45H0.568689C0.389208 6.45 0.24369 6.30448 0.24369 6.125V4.825C0.24369 4.64552 0.389208 4.5 0.568689 4.5H6.08789V6.45V23.2031V24H0.000177383V23.2031H0.89369ZM0.89369 5.15H5.43789V5.8H0.89369V5.15ZM5.43789 6.45V23.2031H1.54369V6.45H5.43789Z" fill="#80CBA3"/>
<path fill-rule="evenodd" clip-rule="evenodd" d="M18.4001 23.2V2.4H18.8001C19.021 2.4 19.2001 2.2209 19.2001 2V0.4C19.2001 0.1791 19.021 0 18.8001 0H5.20011C4.97921 0 4.80011 0.1791 4.80011 0.4V2C4.80011 2.2209 4.97921 2.4 5.20011 2.4H5.60011V23.2H4.49982V24H19.4998V23.2H18.4001ZM18.4001 0.8H5.60011V1.6H18.4001V0.8ZM6.40011 23.2H11.6001V2.4H6.40011V23.2ZM12.4001 23.2H17.6001V2.4H12.4001V23.2Z" fill="#80CBA3"/>
</g>
<defs>
<clipPath id="clip0">
<rect width="24" height="24" fill="white"/>
</clipPath>
</defs>
</svg>
