<svg width="32" height="26" viewBox="0 0 32 26" fill="none" xmlns="http://www.w3.org/2000/svg">
<path d="M16 5.4071L4.5874 14.8156C4.5874 14.8289 4.58407 14.8485 4.57739 14.8751C4.57086 14.9015 4.56738 14.9207 4.56738 14.9343V24.4614C4.56738 24.8054 4.69314 25.1035 4.9446 25.3546C5.19598 25.6057 5.49367 25.7321 5.83773 25.7321H13.4592V18.1102H18.5409V25.7324H26.1624C26.5064 25.7324 26.8045 25.6063 27.0555 25.3546C27.3069 25.1038 27.4331 24.8055 27.4331 24.4614V14.9343C27.4331 14.8815 27.4259 14.8416 27.4131 14.8156L16 5.4071Z" fill="#6EB58E"/>
<path d="M31.7792 12.6722L27.4327 9.05979V0.961579C27.4327 0.776447 27.3732 0.624197 27.2538 0.505039C27.1353 0.386021 26.983 0.326511 26.7975 0.326511H22.9867C22.8013 0.326511 22.6492 0.386021 22.5299 0.505039C22.411 0.624197 22.3515 0.776516 22.3515 0.961579V4.83198L17.5086 0.782773C17.0857 0.438717 16.5828 0.266724 16.0005 0.266724C15.4182 0.266724 14.9154 0.438717 14.492 0.782773L0.220557 12.6722C0.0882599 12.7779 0.0157503 12.9201 0.0022634 13.0988C-0.011154 13.2773 0.0350769 13.4332 0.141095 13.5655L1.37167 15.0343C1.47769 15.1533 1.61645 15.2261 1.78851 15.2527C1.94737 15.2661 2.10622 15.2196 2.26508 15.1138L16 3.66091L29.7351 15.1138C29.8412 15.2061 29.9799 15.2522 30.152 15.2522H30.2116C30.3834 15.226 30.5219 15.1528 30.6285 15.034L31.8592 13.5654C31.965 13.4329 32.0114 13.2772 31.9976 13.0985C31.984 12.9203 31.9113 12.7781 31.7792 12.6722Z" fill="#6EB58E"/>
</svg>
