<svg width="25" height="32" viewBox="0 0 25 32" fill="none" xmlns="http://www.w3.org/2000/svg">
<path d="M14.0894 0H10.2832C8.73684 0 7.48115 1.2685 7.50221 2.81956L16.8703 2.825C16.8943 1.2715 15.6375 0 14.0894 0Z" fill="#CACACA"/>
<path d="M5.62695 9.4375H7.4707V11.2812H5.62695V9.4375Z" fill="#CACACA"/>
<path d="M5.62695 24.4844H7.4707V26.3281H5.62695V24.4844Z" fill="#CACACA"/>
<path d="M5.62695 16.9531H7.4707V18.7969H5.62695V16.9531Z" fill="#CACACA"/>
<path d="M22.1808 1.86828L18.3634 1.87441C18.6086 2.44041 18.7452 3.06397 18.7452 3.71903C18.7452 4.23678 18.3255 4.65653 17.8077 4.65653H6.564C6.04625 4.65653 5.6265 4.23678 5.6265 3.71903C5.6265 3.06397 5.76319 2.44041 6.00837 1.87441C1.241 1.86678 2.36156 1.86828 2.18737 1.86828C0.990063 1.86828 0 2.83566 0 4.05578V29.8128C0 31.019 0.981312 32.0003 2.1875 32.0003H22.1843C23.3905 32.0003 24.3718 31.019 24.3718 29.8128V4.05578C24.3718 2.85585 23.4034 1.86828 22.1808 1.86828ZM9.34525 27.2659C9.34525 27.7837 8.9255 28.2034 8.40775 28.2034H4.689C4.17125 28.2034 3.7515 27.7837 3.7515 27.2659V23.5472C3.7515 23.0294 4.17125 22.6097 4.689 22.6097H8.40775C8.9255 22.6097 9.34525 23.0294 9.34525 23.5472V27.2659ZM9.34525 19.7347C9.34525 20.2524 8.9255 20.6722 8.40775 20.6722H4.689C4.17125 20.6722 3.7515 20.2524 3.7515 19.7347V16.0159C3.7515 15.4982 4.17125 15.0784 4.689 15.0784H8.40775C8.9255 15.0784 9.34525 15.4982 9.34525 16.0159V19.7347ZM9.34525 12.219C9.34525 12.7368 8.9255 13.1565 8.40775 13.1565H4.689C4.17125 13.1565 3.7515 12.7368 3.7515 12.219V8.50028C3.7515 7.98253 4.17125 7.56278 4.689 7.56278H8.40775C8.9255 7.56278 9.34525 7.98253 9.34525 8.50028V12.219ZM17.8109 28.2034H12.1859C11.6681 28.2034 11.2484 27.7837 11.2484 27.2659C11.2484 26.7482 11.6681 26.3284 12.1859 26.3284H17.8109C18.3286 26.3284 18.7484 26.7482 18.7484 27.2659C18.7484 27.7837 18.3286 28.2034 17.8109 28.2034ZM19.6827 24.4847H12.1859C11.6681 24.4847 11.2484 24.0649 11.2484 23.5472C11.2484 23.0294 11.6681 22.6097 12.1859 22.6097H19.6827C20.2005 22.6097 20.6202 23.0294 20.6202 23.5472C20.6202 24.0649 20.2005 24.4847 19.6827 24.4847ZM11.2484 19.7347C11.2484 19.2169 11.6681 18.7972 12.1859 18.7972H17.8109C18.3286 18.7972 18.7484 19.2169 18.7484 19.7347C18.7484 20.2524 18.3286 20.6722 17.8109 20.6722H12.1859C11.6681 20.6722 11.2484 20.2524 11.2484 19.7347ZM19.6827 16.9534H12.1859C11.6681 16.9534 11.2484 16.5337 11.2484 16.0159C11.2484 15.4982 11.6681 15.0784 12.1859 15.0784H19.6827C20.2005 15.0784 20.6202 15.4982 20.6202 16.0159C20.6202 16.5337 20.2005 16.9534 19.6827 16.9534ZM11.2484 12.219C11.2484 11.7013 11.6681 11.2815 12.1859 11.2815H17.8109C18.3286 11.2815 18.7484 11.7013 18.7484 12.219C18.7484 12.7368 18.3286 13.1565 17.8109 13.1565H12.1859C11.6681 13.1565 11.2484 12.7368 11.2484 12.219ZM19.6827 9.43778H12.1859C11.6681 9.43778 11.2484 9.01803 11.2484 8.50028C11.2484 7.98253 11.6681 7.56278 12.1859 7.56278H19.6827C20.2005 7.56278 20.6202 7.98253 20.6202 8.50028C20.6202 9.01803 20.2005 9.43778 19.6827 9.43778Z" fill="#CACACA"/>
</svg>
