<svg width="24" height="28" viewBox="0 0 24 28" fill="none" xmlns="http://www.w3.org/2000/svg">
<path d="M23.25 14.8203H19.4241C19.0757 12.9505 17.5608 11.5391 15.75 11.5391C13.9392 11.5391 12.4244 12.9505 12.0759 14.8203H8.25C7.83545 14.8203 7.5 15.1872 7.5 15.6406V21.3828H13.5V20.5625C13.5 20.1091 13.8355 19.7422 14.25 19.7422H17.25C17.6645 19.7422 18 20.1091 18 20.5625V21.3828H24V15.6406C24 15.1872 23.6646 14.8203 23.25 14.8203ZM13.6382 14.8203C13.9488 13.8675 14.7735 13.1797 15.75 13.1797C16.7265 13.1797 17.5512 13.8675 17.8618 14.8203H13.6382Z" fill="#CACACA"/>
<path d="M16.5 22.2031V21.3828H15V22.2031C15 22.6557 15.3362 23.0234 15.75 23.0234C16.1638 23.0234 16.5 22.6557 16.5 22.2031Z" fill="#CACACA"/>
<path d="M15.75 24.6641C14.7735 24.6641 13.9488 23.9762 13.6382 23.0234H7.5V27.1797C7.5 27.6331 7.83545 28 8.25 28H23.25C23.6646 28 24 27.6331 24 27.1797V23.0234H17.8618C17.5512 23.9762 16.7265 24.6641 15.75 24.6641Z" fill="#CACACA"/>
<path d="M0.75 28H6.13815C6.0541 27.7421 6 27.4687 6 27.1797V15.6406C6 14.2836 7.0093 13.1797 8.25 13.1797H11.0266C11.8727 11.2468 13.6637 9.89844 15.75 9.89844C16.0068 9.89844 16.2529 9.94219 16.5 9.98134V0.820312C16.5 0.366898 16.1646 0 15.75 0H0.75C0.33545 0 0 0.366898 0 0.820312V27.1797C0 27.6331 0.33545 28 0.75 28ZM3.75 2.51562H12.75C13.1645 2.51562 13.5 2.88252 13.5 3.33594C13.5 3.78935 13.1645 4.15625 12.75 4.15625H3.75C3.33545 4.15625 3 3.78935 3 3.33594C3 2.88252 3.33545 2.51562 3.75 2.51562ZM3.75 5.79688H9.75C10.1645 5.79688 10.5 6.16377 10.5 6.61719C10.5 7.0706 10.1645 7.4375 9.75 7.4375H3.75C3.33545 7.4375 3 7.0706 3 6.61719C3 6.16377 3.33545 5.79688 3.75 5.79688ZM3.75 9.07812H8.25C8.66455 9.07812 9 9.44502 9 9.89844C9 10.3519 8.66455 10.7188 8.25 10.7188H3.75C3.33545 10.7188 3 10.3519 3 9.89844C3 9.44502 3.33545 9.07812 3.75 9.07812Z" fill="#CACACA"/>
</svg>
