<svg width="32" height="32" viewBox="0 0 32 32" fill="none" xmlns="http://www.w3.org/2000/svg">
<g clip-path="url(#clip0)">
<path d="M3.99968 14.6667C3.65835 14.6667 3.31702 14.5361 3.05702 14.2761C2.53568 13.7547 2.53568 12.9121 3.05702 12.3907L12.265 3.18275C12.7864 2.66141 13.629 2.66141 14.1504 3.18275C14.6717 3.70408 14.6717 4.54675 14.1504 5.06808L4.94235 14.2761C4.68235 14.5361 4.34102 14.6667 3.99968 14.6667Z" fill="#CACACA"/>
<path d="M14.9998 7.99992C14.7398 7.99992 14.4838 7.89859 14.2931 7.70659L9.62644 3.03992C9.33978 2.75459 9.25444 2.32392 9.40911 1.95059C9.56378 1.57725 9.92911 1.33325 10.3331 1.33325H14.9998C15.5518 1.33325 15.9998 1.78125 15.9998 2.33325V6.99992C15.9998 7.40392 15.7558 7.76925 15.3824 7.92392C15.2584 7.97458 15.1291 7.99992 14.9998 7.99992Z" fill="#CACACA"/>
<path d="M9.33301 20.3334V28.0001H1.33301V20.3334C1.33301 19.4134 2.07967 18.6667 2.99967 18.6667H7.66634C8.58634 18.6667 9.33301 19.4134 9.33301 20.3334Z" fill="#CACACA"/>
<path d="M20 14.9999V27.9999H12V14.9999C12 14.0799 12.7467 13.3333 13.6667 13.3333H18.3333C19.2533 13.3333 20 14.0799 20 14.9999Z" fill="#CACACA"/>
<path d="M30.667 9.66667V28H22.667V9.66667C22.667 8.74667 23.4137 8 24.3337 8H29.0003C29.9203 8 30.667 8.74667 30.667 9.66667Z" fill="#CACACA"/>
<path d="M31 32H1C0.448 32 0 31.552 0 31C0 30.448 0.448 30 1 30H31C31.552 30 32 30.448 32 31C32 31.552 31.552 32 31 32Z" fill="#CACACA"/>
</g>
<defs>
<clipPath id="clip0">
<rect width="32" height="32" fill="white"/>
</clipPath>
</defs>
</svg>
