<svg width="40" height="40" viewBox="0 0 40 40" fill="none" xmlns="http://www.w3.org/2000/svg">
<path d="M34.375 3.75C34.2092 3.75 34.0503 3.81585 33.9331 3.93306C33.8158 4.05027 33.75 4.20924 33.75 4.375V7.5H6.25V4.375C6.25 4.20924 6.18415 4.05027 6.06694 3.93306C5.94973 3.81585 5.79076 3.75 5.625 3.75C4.46508 3.75132 3.35305 4.21268 2.53287 5.03287C1.71268 5.85305 1.25132 6.96508 1.25 8.125V32.0062C1.25165 33.1313 1.69929 34.2097 2.49479 35.0052C3.29029 35.8007 4.36875 36.2483 5.49375 36.25H34.5062C35.6317 36.2483 36.7105 35.8004 37.5061 35.0043C38.3017 34.2083 38.749 33.1292 38.75 32.0037V8.125C38.7487 6.96508 38.2873 5.85305 37.4671 5.03287C36.6469 4.21268 35.5349 3.75132 34.375 3.75ZM2.5 8.125C2.50079 7.40484 2.7499 6.70698 3.20531 6.1491C3.66072 5.59122 4.29458 5.20745 5 5.0625V27.5438C4.04961 27.6813 3.171 28.128 2.5 28.815V8.125ZM37.5 32.0062C37.4983 32.7997 37.1824 33.5602 36.6213 34.1213C36.0602 34.6824 35.2997 34.9983 34.5062 35H5.49375C4.69983 34.9983 3.93894 34.6821 3.37779 34.1204C2.81664 33.5588 2.50099 32.7977 2.5 32.0037V31.875C2.50099 31.0465 2.83055 30.2522 3.41639 29.6664C4.00222 29.0806 4.7965 28.751 5.625 28.75C5.79076 28.75 5.94973 28.6842 6.06694 28.5669C6.18415 28.4497 6.25 28.2908 6.25 28.125V8.75H33.75V28.125C33.75 28.2908 33.8158 28.4497 33.9331 28.5669C34.0503 28.6842 34.2092 28.75 34.375 28.75C35.2035 28.751 35.9978 29.0806 36.5836 29.6664C37.1694 30.2522 37.499 31.0465 37.5 31.875V32.0062ZM37.5 28.8156C36.829 28.1287 35.9504 27.6819 35 27.5444V5.0625C35.7054 5.20745 36.3393 5.59122 36.7947 6.1491C37.2501 6.70698 37.4992 7.40484 37.5 8.125V28.8156Z" fill="#939393"/>
<path d="M31.875 12.5H13.75C13.5842 12.5 13.4253 12.5658 13.3081 12.6831C13.1908 12.8003 13.125 12.9592 13.125 13.125V17.5H8.125C7.95924 17.5 7.80027 17.5658 7.68306 17.6831C7.56585 17.8003 7.5 17.9592 7.5 18.125V30.625C7.5 30.7908 7.56585 30.9497 7.68306 31.0669C7.80027 31.1842 7.95924 31.25 8.125 31.25H23.125C23.2908 31.25 23.4497 31.1842 23.5669 31.0669C23.6842 30.9497 23.75 30.7908 23.75 30.625V22.5H28.125C28.2908 22.5 28.4497 22.4342 28.5669 22.3169C28.6842 22.1997 28.75 22.0408 28.75 21.875C28.75 21.7092 28.6842 21.5503 28.5669 21.4331C28.4497 21.3158 28.2908 21.25 28.125 21.25H16.875C16.7092 21.25 16.5503 21.3158 16.4331 21.4331C16.3158 21.5503 16.25 21.7092 16.25 21.875V25C16.25 25.1658 16.3158 25.3247 16.4331 25.4419C16.5503 25.5592 16.7092 25.625 16.875 25.625C17.0408 25.625 17.1997 25.5592 17.3169 25.4419C17.4342 25.3247 17.5 25.1658 17.5 25V22.5H22.5V30H17.5V27.5C17.5 27.3342 17.4342 27.1753 17.3169 27.0581C17.1997 26.9408 17.0408 26.875 16.875 26.875C16.7092 26.875 16.5503 26.9408 16.4331 27.0581C16.3158 27.1753 16.25 27.3342 16.25 27.5V30H8.75V25H13.75C13.9158 25 14.0747 24.9342 14.1919 24.8169C14.3092 24.6997 14.375 24.5408 14.375 24.375C14.375 24.2092 14.3092 24.0503 14.1919 23.9331C14.0747 23.8158 13.9158 23.75 13.75 23.75H8.75V18.75H13.75C13.9158 18.75 14.0747 18.6842 14.1919 18.5669C14.3092 18.4497 14.375 18.2908 14.375 18.125V13.75H22.5V18.75C22.5 18.9158 22.5658 19.0747 22.6831 19.1919C22.8003 19.3092 22.9592 19.375 23.125 19.375C23.2908 19.375 23.4497 19.3092 23.5669 19.1919C23.6842 19.0747 23.75 18.9158 23.75 18.75V13.75H26.9181C27.0583 14.8499 27.5598 15.8721 28.3439 16.6561C29.1279 17.4402 30.1501 17.9417 31.25 18.0819V30H26.25C26.0842 30 25.9253 30.0658 25.8081 30.1831C25.6908 30.3003 25.625 30.4592 25.625 30.625C25.625 30.7908 25.6908 30.9497 25.8081 31.0669C25.9253 31.1842 26.0842 31.25 26.25 31.25H31.875C32.0408 31.25 32.1997 31.1842 32.3169 31.0669C32.4342 30.9497 32.5 30.7908 32.5 30.625V13.125C32.5 12.9592 32.4342 12.8003 32.3169 12.6831C32.1997 12.5658 32.0408 12.5 31.875 12.5ZM28.1812 13.75H31.25V16.8187C30.4838 16.6878 29.7771 16.3223 29.2274 15.7726C28.6777 15.2229 28.3122 14.5162 28.1812 13.75Z" fill="#939393"/>
</svg>
