<svg width="50" height="47" viewBox="0 0 50 47" fill="none" xmlns="http://www.w3.org/2000/svg">
<path fill-rule="evenodd" clip-rule="evenodd" d="M2.78317 24.6883C4.89389 22.8529 8.64241 21.1152 15.2359 21.1152C21.8293 21.1152 25.5779 22.8529 27.6886 24.6883C28.7394 25.602 29.3654 26.5243 29.7307 27.2312C29.913 27.584 30.0299 27.8825 30.1025 28.0987C30.1388 28.2068 30.1641 28.2945 30.1808 28.3582C30.1892 28.3901 30.1955 28.416 30.2 28.4355L30.2055 28.46L30.2073 28.4685L30.208 28.4719L30.2083 28.4733C30.2084 28.474 30.2085 28.4746 29.5406 28.6082L30.2083 28.4733L30.2218 28.5407V46.9999H0.25V28.5407L0.263228 28.4746L0.931176 28.6082C0.263228 28.4746 0.263097 28.4752 0.263228 28.4746L0.263773 28.4719L0.264459 28.4685L0.266266 28.46L0.271729 28.4355C0.276234 28.416 0.282521 28.3901 0.290916 28.3582C0.307703 28.2945 0.332938 28.2068 0.369235 28.0987C0.441814 27.8825 0.55877 27.584 0.741093 27.2312C1.10631 26.5243 1.73234 25.602 2.78317 24.6883ZM1.61235 28.6902V45.6376H28.8594V28.6902C28.8495 28.6538 28.8339 28.6004 28.811 28.5323C28.7585 28.3759 28.6679 28.1422 28.5203 27.8565C28.2256 27.2862 27.7022 26.5055 26.7946 25.7163C24.9886 24.1458 21.5848 22.4776 15.2359 22.4776C8.887 22.4776 5.48316 24.1458 3.67712 25.7163C2.76958 26.5055 2.24612 27.2862 1.95144 27.8565C1.80382 28.1422 1.71323 28.3759 1.66075 28.5323C1.63787 28.6004 1.62226 28.6538 1.61235 28.6902Z" fill="#939393"/>
<path fill-rule="evenodd" clip-rule="evenodd" d="M7.06204 31.334C7.43824 31.334 7.74321 31.639 7.74321 32.0152H7.06204H6.38086C6.38086 31.639 6.68583 31.334 7.06204 31.334ZM7.06204 45.6387L6.38086 45.6386V32.0152H7.06204H7.74321V45.6384L7.06204 45.6387ZM7.06204 45.6387L6.38086 45.6386C6.38086 46.0149 6.68583 46.3199 7.06204 46.3199C7.43824 46.3199 7.74321 46.0146 7.74321 45.6384L7.06204 45.6387Z" fill="#939393"/>
<path fill-rule="evenodd" clip-rule="evenodd" d="M11.1499 17.0283C11.5261 17.0283 11.8311 17.3333 11.8311 17.7095H11.1499H10.4688C10.4688 17.3333 10.7737 17.0283 11.1499 17.0283ZM11.8311 17.7095H11.1499H10.4688V21.2507C10.4688 21.6269 10.7737 21.9328 11.1499 21.9328C11.5261 21.9328 11.8311 21.6278 11.8311 21.2516V17.7095Z" fill="#939393"/>
<path fill-rule="evenodd" clip-rule="evenodd" d="M17.9605 17.0283C18.3367 17.0283 18.6416 17.3333 18.6416 17.7095H17.9605H17.2793C17.2793 17.3333 17.5843 17.0283 17.9605 17.0283ZM18.6416 17.7095H17.9605H17.2793V21.2507C17.2793 21.6269 17.5843 21.9328 17.9605 21.9328C18.3367 21.9328 18.6416 21.6278 18.6416 21.2516V17.7095Z" fill="#939393"/>
<path fill-rule="evenodd" clip-rule="evenodd" d="M23.4097 31.334C23.7859 31.334 24.0909 31.639 24.0909 32.0152H23.4097H22.7285C22.7285 31.639 23.0335 31.334 23.4097 31.334ZM23.4097 45.6387L22.7285 45.6386V32.0152H23.4097H24.0909V45.6384L23.4097 45.6387ZM23.4097 45.6387L22.7285 45.6386C22.7285 46.0149 23.0335 46.3199 23.4097 46.3199C23.7859 46.3199 24.0909 46.0146 24.0909 45.6384L23.4097 45.6387Z" fill="#939393"/>
<path fill-rule="evenodd" clip-rule="evenodd" d="M15.2359 33.3779C15.6121 33.3779 15.917 33.6829 15.917 34.0591H15.2359H14.5547C14.5547 33.6829 14.8597 33.3779 15.2359 33.3779ZM15.917 34.0591H15.2359H14.5547V45.7742C14.5547 46.1504 14.8597 46.4565 15.2359 46.4565C15.6121 46.4565 15.917 46.1515 15.917 45.7753V34.0591Z" fill="#939393"/>
<path fill-rule="evenodd" clip-rule="evenodd" d="M11.2849 22.043C11.28 21.9127 11.2377 21.7829 11.1568 21.6706C10.9614 21.3996 10.5984 21.3103 10.2996 21.4597L6.48497 23.367C5.31765 23.9506 4.84372 25.5709 5.89079 26.6292L7.47638 28.3205L6.58041 29.2164C6.42211 29.3747 6.3517 29.6007 6.39206 29.8209C6.43242 30.0411 6.57839 30.2274 6.78254 30.3193L14.9567 33.9976C15.2194 34.1159 15.5281 34.056 15.7276 33.8482C15.9271 33.6404 15.9743 33.3295 15.8455 33.0718C15.1775 31.736 13.9944 28.9659 12.9892 26.4953C12.4881 25.2638 12.0349 24.116 11.7164 23.27C11.5566 22.8458 11.4332 22.504 11.3547 22.2676C11.3206 22.1648 11.298 22.091 11.2849 22.043ZM10.181 23.0421L7.09423 24.5855C6.62985 24.8177 6.55825 25.37 6.86256 25.6743L6.87784 25.6901L8.92137 27.8699C9.17282 28.1381 9.16606 28.5574 8.90609 28.8174L8.24159 29.4819L13.8434 32.0027C13.1966 30.5558 12.4157 28.7006 11.7273 27.0087C11.2236 25.771 10.7657 24.6113 10.4414 23.7501C10.342 23.486 10.2542 23.2476 10.181 23.0421Z" fill="#939393"/>
<path fill-rule="evenodd" clip-rule="evenodd" d="M19.7676 21.5658C19.9476 21.4992 20.1473 21.5116 20.3177 21.5999L23.9757 23.4966C24.6426 23.7916 25.0653 24.3486 25.1718 24.9876C25.278 25.6249 25.0605 26.2857 24.5728 26.7733L23.011 28.3352L23.8917 29.2159C24.05 29.3742 24.1204 29.6002 24.08 29.8204C24.0396 30.0406 23.8937 30.2269 23.6895 30.3187L15.5154 33.9971C15.2527 34.1153 14.944 34.0555 14.7445 33.8476C14.545 33.6398 14.4978 33.3289 14.6266 33.0713C15.2952 31.7341 16.4778 28.9648 17.5021 26.5065C18.0122 25.2823 18.4798 24.143 18.82 23.3096C18.9901 22.8929 19.1282 22.5528 19.2238 22.317L19.3723 21.95C19.4441 21.772 19.5876 21.6324 19.7676 21.5658ZM20.3545 23.1536C20.2769 23.3447 20.185 23.5704 20.0813 23.8244C19.7403 24.6599 19.2713 25.8024 18.7597 27.0305C18.0612 28.7067 17.2772 30.5567 16.6296 32.0017L22.2305 29.4814L21.566 28.8169C21.3 28.5508 21.3 28.1196 21.566 27.8535L23.6095 25.81C23.803 25.6165 23.858 25.3917 23.828 25.2116C23.7996 25.0412 23.6865 24.8547 23.4141 24.738C23.3988 24.7314 23.3837 24.7243 23.3689 24.7166L20.3545 23.1536Z" fill="#939393"/>
<path fill-rule="evenodd" clip-rule="evenodd" d="M17.5344 28.4595L10.7227 23.0101L11.5737 21.9463L18.3855 27.3957L17.5344 28.4595Z" fill="#939393"/>
<path fill-rule="evenodd" clip-rule="evenodd" d="M12.0859 27.3957L18.8977 21.9463L19.7488 23.0101L12.937 28.4595L12.0859 27.3957Z" fill="#939393"/>
<path fill-rule="evenodd" clip-rule="evenodd" d="M7.06263 4.08594C7.43883 4.08594 7.7438 4.39091 7.7438 4.76711V14.3036C7.7438 14.3249 7.7428 14.3461 7.74081 14.3673M7.7408 14.3675L7.74011 14.3772C7.7394 14.3884 7.73837 14.4082 7.73779 14.4353C7.73662 14.4897 7.73732 14.5721 7.74571 14.6727C7.76279 14.8778 7.81006 15.1372 7.92222 15.3864C8.03188 15.6301 8.20041 15.8585 8.46645 16.0302C8.73262 16.2019 9.14345 16.3471 9.78733 16.3471C10.1635 16.3471 10.4685 16.6521 10.4685 17.0283C10.4685 17.4045 10.1635 17.7095 9.78733 17.7095C8.93262 17.7095 8.25357 17.5141 7.72788 17.1749C7.20205 16.8357 6.87672 16.3829 6.67986 15.9455C6.48548 15.5135 6.41354 15.0917 6.38806 14.7859C6.37516 14.6311 6.37373 14.5006 6.37575 14.4061C6.37677 14.3587 6.37866 14.3199 6.38048 14.2911L6.38145 14.2777V4.76711C6.38145 4.39091 6.68642 4.08594 7.06263 4.08594" fill="#939393"/>
<path fill-rule="evenodd" clip-rule="evenodd" d="M9.10547 17.0288C9.10547 16.6526 9.41044 16.3477 9.78665 16.3477H11.149C11.5252 16.3477 11.8302 16.6526 11.8302 17.0288C11.8302 17.405 11.5252 17.71 11.149 17.71H9.78665C9.41044 17.71 9.10547 17.405 9.10547 17.0288Z" fill="#939393"/>
<path fill-rule="evenodd" clip-rule="evenodd" d="M22.0485 8.17285C22.4247 8.17285 22.7296 8.47782 22.7296 8.85403V14.2776L22.7306 14.291C22.7324 14.3197 22.7343 14.3585 22.7353 14.4059C22.7374 14.5005 22.7359 14.6309 22.723 14.7857C22.6975 15.0916 22.6256 15.5134 22.4312 15.9453C22.2344 16.3828 21.909 16.8356 21.3832 17.1748C20.8575 17.514 20.1785 17.7093 19.3238 17.7093C18.9476 17.7093 18.6426 17.4043 18.6426 17.0281C18.6426 16.6519 18.9476 16.347 19.3238 16.347C19.9676 16.347 20.3785 16.2017 20.6446 16.03C20.9107 15.8584 21.0792 15.63 21.1889 15.3863C21.301 15.137 21.3483 14.8777 21.3654 14.6726C21.3738 14.572 21.3745 14.4896 21.3733 14.4351C21.3727 14.408 21.3717 14.3883 21.371 14.3771L21.3703 14.3673L21.3704 14.3688L21.3705 14.3699M21.3703 14.3672C21.3683 14.346 21.3673 14.3247 21.3673 14.3034V8.85403C21.3673 8.47782 21.6723 8.17285 22.0485 8.17285" fill="#939393"/>
<path fill-rule="evenodd" clip-rule="evenodd" d="M17.2793 17.0288C17.2793 16.6526 17.5843 16.3477 17.9605 16.3477H19.3228C19.699 16.3477 20.004 16.6526 20.004 17.0288C20.004 17.405 19.699 17.71 19.3228 17.71H17.9605C17.5843 17.71 17.2793 17.405 17.2793 17.0288Z" fill="#939393"/>
<path fill-rule="evenodd" clip-rule="evenodd" d="M9.78711 17.0288C9.78711 16.6526 10.0921 16.3477 10.4683 16.3477H18.6424C19.0186 16.3477 19.3236 16.6526 19.3236 17.0288C19.3236 17.405 19.0186 17.71 18.6424 17.71H10.4683C10.0921 17.71 9.78711 17.405 9.78711 17.0288Z" fill="#939393"/>
<path fill-rule="evenodd" clip-rule="evenodd" d="M5.18526 0.234868C5.31464 0.0856911 5.50239 0 5.69986 0H19.3234L19.3253 2.63908e-06L19.3277 1.19774e-05L19.3335 5.89124e-05L19.3497 0.000323754C19.3625 0.0005983 19.3792 0.00109863 19.3995 0.00200221C19.4402 0.00380824 19.4955 0.00723202 19.5636 0.0137117C19.6994 0.0266482 19.8872 0.0519048 20.1097 0.101368C20.5532 0.199904 21.1474 0.397357 21.7448 0.79558C22.9792 1.61853 24.0916 3.20745 24.0916 6.13059V8.85529C24.0916 9.1007 23.9596 9.32714 23.746 9.44805C23.5325 9.56896 23.2704 9.56566 23.06 9.43939L16.5864 5.55525C14.2863 6.80954 12.3862 7.24397 10.8135 7.10722C9.1446 6.96209 7.92814 6.18099 7.06678 5.22392C6.21645 4.27911 5.71038 3.16351 5.41723 2.30659C5.26939 1.87445 5.17252 1.49866 5.11223 1.22882C5.08204 1.09368 5.06089 0.98449 5.04704 0.907365C5.04011 0.868785 5.03499 0.838174 5.03148 0.816291L5.02739 0.790089L5.02619 0.782062L5.02579 0.779347L5.02548 0.777509C5.02548 0.777509 5.05588 0.384046 5.18526 0.234868ZM6.55014 1.36235C6.59272 1.51513 6.64431 1.68459 6.70623 1.86561C6.96653 2.62649 7.39709 3.55442 8.07941 4.31255C8.75068 5.05841 9.6629 5.63967 10.9315 5.74999C12.2173 5.86179 13.9507 5.4968 16.2607 4.17681C16.4746 4.05457 16.7379 4.05737 16.9491 4.18413L22.7293 7.6522V6.13059C22.7293 3.60431 21.7982 2.46852 20.9891 1.92912C20.5646 1.64617 20.1371 1.50304 19.8142 1.43128C19.6536 1.39559 19.5221 1.37828 19.4344 1.36993C19.3907 1.36576 19.3583 1.36387 19.339 1.36301L19.3205 1.36236L6.55014 1.36235Z" fill="#939393"/>
<path fill-rule="evenodd" clip-rule="evenodd" d="M21.3672 8.85403C21.3672 8.47782 21.6722 8.17285 22.0484 8.17285H23.4107C23.6687 8.17285 23.9046 8.31862 24.02 8.5494L23.4107 8.85403C24.02 8.5494 24.0201 8.54965 24.0202 8.54991L24.0205 8.55048L24.0212 8.55182L24.0229 8.55526L24.0277 8.56515L24.0426 8.59657C24.0547 8.6225 24.071 8.65836 24.09 8.70278C24.128 8.79127 24.1776 8.91556 24.2272 9.06436C24.3237 9.3538 24.4325 9.77276 24.4325 10.2164C24.4325 10.662 24.3206 11.2064 23.8924 11.6347C23.4641 12.0629 22.8345 12.2599 22.0484 12.2599C21.6722 12.2599 21.3672 11.9549 21.3672 11.5787C21.3672 11.2025 21.6722 10.8976 22.0484 10.8976C22.6245 10.8976 22.8464 10.754 22.9291 10.6713C23.0117 10.5887 23.0701 10.452 23.0701 10.2164C23.0701 9.99299 23.0157 9.7478 22.9479 9.5352H22.0484C21.6722 9.5352 21.3672 9.23023 21.3672 8.85403Z" fill="#939393"/>
<path fill-rule="evenodd" clip-rule="evenodd" d="M5.09024 8.5494C5.20562 8.31862 5.44149 8.17285 5.6995 8.17285H7.06185C7.43805 8.17285 7.74303 8.47782 7.74303 8.85403C7.74303 9.23023 7.43805 9.5352 7.06185 9.5352H6.16236C6.09449 9.7478 6.04009 9.99299 6.04009 10.2164C6.04009 10.452 6.09852 10.5887 6.18116 10.6713C6.2638 10.754 6.48567 10.8976 7.06185 10.8976C7.43805 10.8976 7.74303 11.2025 7.74303 11.5787C7.74303 11.9549 7.43805 12.2599 7.06185 12.2599C6.27568 12.2599 5.64608 12.0629 5.21783 11.6347C4.78959 11.2064 4.67773 10.662 4.67773 10.2164C4.67773 9.77276 4.7865 9.3538 4.88298 9.06436C4.93258 8.91556 4.98226 8.79127 5.02018 8.70278C5.03922 8.65836 5.05549 8.6225 5.06759 8.59657L5.08251 8.56515L5.08733 8.55526L5.08903 8.55182L5.0897 8.55048L5.08998 8.54991C5.09011 8.54965 5.09024 8.5494 5.6995 8.85403L5.09024 8.5494Z" fill="#939393"/>
<path fill-rule="evenodd" clip-rule="evenodd" d="M6.18197 3.88689C6.18197 3.88689 6.18197 3.88689 6.18197 3.88689L6.18199 3.88687L6.18247 3.88639L6.18329 3.88557L6.18422 3.88462C6.18453 3.8843 6.18424 3.8846 6.18337 3.8855L6.17161 3.89807C6.15955 3.91118 6.13961 3.93347 6.11395 3.96426C6.06239 4.02613 5.98917 4.12063 5.91087 4.24245C5.75204 4.4895 5.58562 4.8281 5.52019 5.22071C5.45651 5.60279 5.48509 6.05124 5.73427 6.54961C5.98733 7.05572 6.48888 7.65437 7.43995 8.28842C7.75297 8.4971 7.83755 8.92002 7.62887 9.23304C7.42019 9.54606 6.99727 9.63065 6.68425 9.42197C5.5918 8.69366 4.90129 7.92996 4.51574 7.15887C4.12632 6.38003 4.06976 5.63643 4.17637 4.99674C4.28123 4.36758 4.54055 3.85471 4.76488 3.50574C4.87816 3.32954 4.98588 3.18988 5.06736 3.09211C5.10822 3.04308 5.14282 3.00416 5.16869 2.97603C5.18163 2.96195 5.19242 2.95054 5.20074 2.94187L5.21136 2.93092L5.21522 2.927L5.21678 2.92543L5.21746 2.92474C5.21778 2.92443 5.21808 2.92412 5.69497 3.40101L5.21808 2.92412C5.4841 2.65811 5.9154 2.65811 6.18141 2.92412C6.44724 3.18994 6.44743 3.62081 6.18199 3.88687C6.18198 3.88688 6.18198 3.88689 6.18197 3.88689Z" fill="#939393"/>
<path fill-rule="evenodd" clip-rule="evenodd" d="M12.5386 11.5791C12.9148 11.5791 13.1932 11.8841 13.1932 12.2603C13.1932 12.4634 13.5209 12.5893 13.6549 12.6996C13.7994 12.8186 14.204 12.9415 14.5555 12.9415C14.91 12.9415 15.4777 12.839 15.6669 12.6996C15.8467 12.5671 15.9177 12.4173 15.9177 12.2603C15.9177 11.8841 16.2227 11.5791 16.5989 11.5791C16.9751 11.5791 17.2801 11.8841 17.2801 12.2603C17.2801 12.9207 16.9424 13.452 16.4751 13.7964C16.0172 14.1338 15.1547 14.3038 14.5555 14.3038C13.9534 14.3038 12.9731 14.1316 12.5386 13.7738C12.0935 13.4073 11.8574 12.8745 11.8574 12.2603C11.8574 11.8841 12.1624 11.5791 12.5386 11.5791Z" fill="#939393"/>
<path fill-rule="evenodd" clip-rule="evenodd" d="M25.4531 4.76738C25.4531 4.39117 25.7581 4.0862 26.1343 4.0862H41.1202C41.4964 4.0862 41.8014 4.39117 41.8014 4.76738V11.573C41.8015 11.5757 41.8017 11.5812 41.8023 11.5891C41.8037 11.6083 41.8067 11.6401 41.8134 11.68C41.8272 11.7631 41.8537 11.8635 41.8997 11.9557C41.9445 12.0452 42.0009 12.1139 42.0728 12.1619C42.1404 12.2069 42.2611 12.2603 42.4825 12.2603H49.2942C49.6704 12.2603 49.9755 12.5653 49.9755 12.9415V40.1885H49.2943C49.9755 40.1885 49.9755 40.1882 49.9755 40.1885L49.9755 40.1917L49.9754 40.1959L49.9753 40.2073L49.9744 40.2418C49.9735 40.2698 49.9717 40.3077 49.9684 40.3541C49.9618 40.4468 49.9489 40.5746 49.9236 40.7263C49.8736 41.0263 49.7723 41.4368 49.563 41.8555C49.3523 42.2769 49.0255 42.719 48.5227 43.0543C48.0155 43.3924 47.37 43.5944 46.5696 43.5944H31.585C31.5849 43.5944 31.5837 43.5944 31.5837 42.9132C31.5837 42.2321 31.5838 42.2321 31.5839 42.2321H46.5696C47.1316 42.2321 47.5078 42.0935 47.767 41.9207C48.0304 41.7451 48.2146 41.506 48.3444 41.2463C48.4757 40.9838 48.5447 40.7131 48.5798 40.5023C48.5971 40.3985 48.6055 40.3135 48.6095 40.2571C48.6115 40.229 48.6124 40.2084 48.6128 40.1964L48.6131 40.1864L48.6131 13.6227H42.4825C42.0227 13.6227 41.6326 13.5058 41.3171 13.2954C41.0058 13.0879 40.8068 12.816 40.6812 12.5649C40.557 12.3165 40.4983 12.0763 40.4696 11.904C40.4549 11.8162 40.4473 11.7416 40.4434 11.6862C40.4414 11.6584 40.4403 11.6351 40.4397 11.6171L40.4391 11.594L40.439 11.5855L40.439 11.5821L40.439 11.5805C40.439 11.5802 40.439 11.5791 41.1202 11.5791H40.439V5.44855H26.1343C25.7581 5.44855 25.4531 5.14358 25.4531 4.76738ZM31.5837 42.9132L31.5839 42.2321C31.2076 42.2321 30.9025 42.537 30.9025 42.9132C30.9025 43.2894 31.2088 43.5944 31.585 43.5944L31.5837 42.9132Z" fill="#939393"/>
<path fill-rule="evenodd" clip-rule="evenodd" d="M40.639 4.28545C40.905 4.01943 41.3363 4.01943 41.6023 4.28545L49.7764 12.4596C50.0424 12.7256 50.0424 13.1569 49.7764 13.4229C49.5104 13.6889 49.0791 13.6889 48.8131 13.4229L40.639 5.24878C40.3729 4.98276 40.3729 4.55147 40.639 4.28545Z" fill="#939393"/>
<path fill-rule="evenodd" clip-rule="evenodd" d="M33.2022 9.00315C33.451 8.80412 33.8045 8.80412 34.0533 9.00315L40.865 14.4526C41.0909 14.6333 41.178 14.937 41.0823 15.2099C40.9865 15.4829 40.7288 15.6656 40.4395 15.6656H26.816C26.5267 15.6656 26.269 15.4829 26.1732 15.2099C26.0774 14.937 26.1646 14.6333 26.3905 14.4526L33.2022 9.00315ZM28.7579 14.3033H38.4976L33.6277 10.4074L28.7579 14.3033Z" fill="#939393"/>
<path fill-rule="evenodd" clip-rule="evenodd" d="M28.1777 14.9857C28.1777 14.6095 28.4827 14.3046 28.8589 14.3046H38.3954C38.7716 14.3046 39.0766 14.6095 39.0766 14.9857V23.1598C39.0766 23.536 38.7716 23.841 38.3954 23.841H28.8589C28.4827 23.841 28.1777 23.536 28.1777 23.1598V14.9857ZM29.5401 15.6669V22.4787H37.7142V15.6669H29.5401Z" fill="#939393"/>
<path fill-rule="evenodd" clip-rule="evenodd" d="M30.9023 17.7101C30.9023 17.3339 31.2073 17.029 31.5835 17.029H35.6706C36.0468 17.029 36.3518 17.3339 36.3518 17.7101V23.1595C36.3518 23.5357 36.0468 23.8407 35.6706 23.8407C35.2944 23.8407 34.9894 23.5357 34.9894 23.1595V18.3913H32.2647V23.1595C32.2647 23.5357 31.9597 23.8407 31.5835 23.8407C31.2073 23.8407 30.9023 23.5357 30.9023 23.1595V17.7101Z" fill="#939393"/>
<path fill-rule="evenodd" clip-rule="evenodd" d="M30.9023 27.9269C30.9023 27.5507 31.2073 27.2457 31.5835 27.2457H34.3082C34.6844 27.2457 34.9894 27.5507 34.9894 27.9269C34.9894 28.3031 34.6844 28.6081 34.3082 28.6081H31.5835C31.2073 28.6081 30.9023 28.3031 30.9023 27.9269Z" fill="#939393"/>
<path fill-rule="evenodd" clip-rule="evenodd" d="M36.3516 27.9269C36.3516 27.5507 36.6565 27.2457 37.0327 27.2457H42.4821C42.8584 27.2457 43.1633 27.5507 43.1633 27.9269C43.1633 28.3031 42.8584 28.6081 42.4821 28.6081H37.0327C36.6565 28.6081 36.3516 28.3031 36.3516 27.9269Z" fill="#939393"/>
<path fill-rule="evenodd" clip-rule="evenodd" d="M30.9023 32.014C30.9023 31.6378 31.2073 31.3328 31.5835 31.3328H42.4823C42.8585 31.3328 43.1635 31.6378 43.1635 32.014C43.1635 32.3902 42.8585 32.6951 42.4823 32.6951H31.5835C31.2073 32.6951 30.9023 32.3902 30.9023 32.014Z" fill="#939393"/>
<path fill-rule="evenodd" clip-rule="evenodd" d="M36.3526 34.7322C36.3487 34.3592 36.0452 34.0581 35.6714 34.0581C35.2952 34.0581 34.9902 34.3631 34.9902 34.7393H35.6714C34.9902 34.7393 34.9902 34.7396 34.9902 34.74L34.9902 34.7407L34.9902 34.7422L34.9903 34.7457L34.9904 34.7542L34.9909 34.7773C34.9915 34.7953 34.9926 34.8186 34.9946 34.8464C34.9986 34.9017 35.0062 34.9764 35.0208 35.0641C35.0495 35.2365 35.1082 35.4767 35.2324 35.7251C35.358 35.9762 35.557 36.248 35.8683 36.4556C36.1839 36.6659 36.574 36.7828 37.0338 36.7828C37.9978 36.7828 38.5124 36.2678 38.86 35.92C38.8659 35.914 38.8719 35.908 38.8778 35.9021C39.2112 35.5687 39.3768 35.4205 39.7585 35.4205C40.1401 35.4205 40.3057 35.5687 40.6392 35.9021C40.645 35.908 40.651 35.914 40.657 35.92C41.0045 36.2678 41.5191 36.7828 42.4832 36.7828C42.8594 36.7828 43.1643 36.4779 43.1643 36.1017C43.1643 35.7254 42.8594 35.4205 42.4832 35.4205C42.1015 35.4205 41.9359 35.2722 41.6025 34.9388C41.5966 34.9329 41.5907 34.927 41.5847 34.921C41.2371 34.5732 40.7225 34.0581 39.7585 34.0581C38.7944 34.0581 38.2798 34.5732 37.9323 34.921C37.9263 34.927 37.9203 34.9329 37.9145 34.9388C37.581 35.2722 37.4154 35.4205 37.0338 35.4205C36.8124 35.4205 36.6916 35.3671 36.624 35.322C36.5521 35.2741 36.4957 35.2053 36.451 35.1158C36.4049 35.0237 36.3785 34.9233 36.3646 34.8402C36.3579 34.8002 36.3549 34.7684 36.3535 34.7493C36.3529 34.7402 36.3526 34.7344 36.3526 34.7322Z" fill="#939393"/>
<ellipse cx="12.5113" cy="8.85403" rx="0.681175" ry="0.681177" fill="#939393"/>
<ellipse cx="16.5991" cy="8.85403" rx="0.681177" ry="0.681177" fill="#939393"/>
</svg>
